<?xml version="1.0" encoding="utf-8"?>
<!-- Generator: Adobe Illustrator 16.0.0, SVG Export Plug-In . SVG Version: 6.00 Build 0)  -->
<!DOCTYPE svg PUBLIC "-//W3C//DTD SVG 1.1//EN" "http://www.w3.org/Graphics/SVG/1.1/DTD/svg11.dtd">
<svg version="1.1" id="Layer_1" xmlns="http://www.w3.org/2000/svg" xmlns:xlink="http://www.w3.org/1999/xlink" x="0px" y="0px"
	 width="1024px" height="1024px" viewBox="0 0 1024 1024" enable-background="new 0 0 1024 1024" xml:space="preserve">
<rect fill="none" width="1024" height="1024"/>
<g>
	<g>
		<path fill-rule="evenodd" clip-rule="evenodd" d="M926.866,530H750.329c-51.805,75-136.974,122.869-233.503,122.869
			S335.111,605,283.307,530H97.135C67.26,530,43,554.838,43,585.144v384.041C43,999.491,67.26,1024,97.135,1024h829.731
			C956.74,1024,981,999.491,981,969.185V585.144C981,554.838,956.74,530,926.866,530z"/>
	</g>
	<path fill-rule="evenodd" clip-rule="evenodd" d="M802.873,289.97c0-160.159-128.077-290.013-286.047-290.013
		c-157.988,0-286.065,129.854-286.065,290.013c0,160.178,128.077,290.03,286.065,290.03C674.796,580,802.873,450.147,802.873,289.97
		z"/>
</g>
</svg>
